<svg xmlns="http://www.w3.org/2000/svg" viewBox="0 0 64 64">
  <defs>
    <linearGradient id="bg" x1="10" y1="8" x2="56" y2="58" gradientUnits="userSpaceOnUse">
      <stop offset="0" stop-color="#6fb0ff" />
      <stop offset="0.45" stop-color="#2f7df0" />
      <stop offset="1" stop-color="#0b4ebc" />
    </linearGradient>
    <radialGradient id="shine" cx="0" cy="0" r="1" gradientUnits="userSpaceOnUse" gradientTransform="translate(18 14) rotate(40) scale(32 28)">
      <stop offset="0" stop-color="#ffffff" stop-opacity="0.5" />
      <stop offset="0.55" stop-color="#ffffff" stop-opacity="0.13" />
      <stop offset="1" stop-color="#ffffff" stop-opacity="0" />
    </radialGradient>
    <radialGradient id="shade" cx="0" cy="0" r="1" gradientUnits="userSpaceOnUse" gradientTransform="translate(49 50) rotate(225) scale(28 26)">
      <stop offset="0" stop-color="#041a42" stop-opacity="0.34" />
      <stop offset="0.7" stop-color="#041a42" stop-opacity="0.1" />
      <stop offset="1" stop-color="#041a42" stop-opacity="0" />
    </radialGradient>
    <linearGradient id="border" x1="4" y1="4" x2="59" y2="59" gradientUnits="userSpaceOnUse">
      <stop offset="0" stop-color="#ffffff" stop-opacity="0.3" />
      <stop offset="0.55" stop-color="#9bb9ec" stop-opacity="0.16" />
      <stop offset="1" stop-color="#031633" stop-opacity="0.22" />
    </linearGradient>
  </defs>

  <rect x="4" y="5" width="56" height="54" rx="10" fill="#04192f" opacity="0.18" />
  <rect x="0" y="0" width="64" height="64" rx="10" fill="url(#bg)" />
  <rect x="0" y="0" width="64" height="64" rx="10" fill="url(#shine)" />
  <rect x="0" y="0" width="64" height="64" rx="10" fill="url(#shade)" />
  <rect x="0.5" y="0.5" width="63" height="63" rx="10" fill="none" stroke="url(#border)" stroke-width="1" />

  <circle cx="32" cy="32" r="16" fill="none" stroke="#fff" stroke-linecap="round" stroke-width="2.75" />
  <path d="M16 32h32" fill="none" stroke="#fff" stroke-linecap="round" stroke-width="2.75" />
  <path d="M32 16c4.8 4.3 7.5 9.9 7.5 16S36.8 43.7 32 48c-4.8-4.3-7.5-9.9-7.5-16S27.2 20.3 32 16Z" fill="none" stroke="#fff" stroke-linecap="round" stroke-width="2.75" />
  <path d="M20 24c4.1 2.2 8 3.2 12 3.2S39.9 26.2 44 24" fill="none" stroke="#fff" stroke-linecap="round" stroke-width="2.75" />
  <path d="M20 40c4.1-2.2 8-3.2 12-3.2s7.9 1 12 3.2" fill="none" stroke="#fff" stroke-linecap="round" stroke-width="2.75" />
</svg>
